# xmcd
#
# Track frame offsets:
#	150
#	22321
#	41906
#	70443
#	90626
#	119535
#	149615
#	181853
#	203714
#	235581
#	255192
#	279083
#
# Disc length: 4060 seconds
# Revision: 0
# Processed by: cddbd v1.5.2PL0 Copyright (c) Steve Scherf et al.
# Submitted via: dBpowerAMP V12.0
#
DISCID=aa0fda0c
DTITLE=Max Bentow - Die Puppenmacherei 4
DYEAR=1900
DGENRE=Unbekanntes Genre
TTITLE0=039
TTITLE1=040
TTITLE2=041
TTITLE3=042
TTITLE4=043
TTITLE5=044
TTITLE6=045
TTITLE7=046
TTITLE8=047
TTITLE9=048
TTITLE10=049
TTITLE11=050
EXTD=
EXTT0=
EXTT1=
EXTT2=
EXTT3=
EXTT4=
EXTT5=
EXTT6=
EXTT7=
EXTT8=
EXTT9=
EXTT10=
EXTT11=
PLAYORDER=
